<svg xmlns="http://www.w3.org/2000/svg"  viewBox="0 0 64 64" width="48px" height="48px"><path d="M 20 10 C 16.686 10 14 12.686 14 16 L 14 48 C 14 51.314 16.686 54 20 54 L 44 54 C 47.314 54 50 51.314 50 48 L 50 28.65625 C 50 27.06425 49.367188 25.539062 48.242188 24.414062 L 35.585938 11.757812 C 34.459938 10.632812 32.93475 10 31.34375 10 L 20 10 z M 20 14 L 30 14 L 30 24 C 30 27.314 32.686 30 36 30 L 46 30 L 46 48 C 46 49.105 45.105 50 44 50 L 20 50 C 18.895 50 18 49.105 18 48 L 18 16 C 18 14.895 18.895 14 20 14 z M 34 15.828125 L 44.171875 26 L 36 26 C 34.895 26 34 25.105 34 24 L 34 15.828125 z"/></svg>