<svg xmlns="http://www.w3.org/2000/svg"  viewBox="0 0 64 64" width="48px" height="48px"><path d="M51.336,31H23.641c-0.868,0-1.637,0.56-1.903,1.386L17.348,46c0.338,0,0.764,0,1.083,0h28.099	c0.436,0,0.821-0.283,0.953-0.698l4.317-13.67c0.049-0.156,0.016-0.314-0.071-0.433C51.64,31.08,51.5,31,51.336,31z M48,20H29.104	c-1.81,0-3.585-0.623-4.998-1.753l-1.712-1.37C21.688,16.311,20.801,16,19.896,16H16c-1.103,0-2,0.897-2,2v23.869	c0,0.443,0,1.047,0,1.48l3.931-12.19C18.731,28.671,21.026,27,23.641,27H50v-5C50,20.897,49.103,20,48,20z M48,16	c3.309,0,6,2.691,6,6v5.546c0.473,0.274,0.895,0.639,1.225,1.089c0.751,1.024,0.971,2.358,0.588,3.569l-4.516,14.301	C50.636,48.596,48.72,50,46.529,50H16c-3.309,0-6-2.691-6-6V18c0-3.309,2.691-6,6-6h3.896c1.81,0,3.585,0.623,4.998,1.753	l1.713,1.37C27.312,15.689,28.199,16,29.104,16H48z"/></svg>